<?xml version="1.0" encoding="UTF-8"?>
<svg id="Layer_1" data-name="Layer 1" xmlns="http://www.w3.org/2000/svg" version="1.1" viewBox="0 0 844.7 595.3">
  <defs>
    <style>
      .cls-1 {
        fill: #ffb8b8;
      }

      .cls-1, .cls-2, .cls-3, .cls-4, .cls-5, .cls-6, .cls-7, .cls-8 {
        stroke-width: 0px;
      }

      .cls-2 {
        fill: #a0616a;
      }

      .cls-3 {
        fill: #3f3d56;
      }

      .cls-4 {
        fill: #227dfc;
      }

      .cls-5 {
        fill: #f2f2f2;
      }

      .cls-6 {
        fill: #2f2e41;
      }

      .cls-7 {
        fill: #ccc;
      }

      .cls-8 {
        fill: #e6e6e6;
      }
    </style>
  </defs>
  <circle class="cls-4" cx="431.4" cy="548" r="46"/>
  <path class="cls-5" d="M706.2,591.4c25.7-7.7,53.1-15.8,73.5-34.2,18.2-16.4,30.6-41.5,23-66.1-7.5-24.6-30.1-41-53.4-49.1-13.2-4.6-27.1-7.2-40.9-9.2-15-2.2-30.1-4-45.2-5.7-61.1-7-122.5-11.3-184-12.8-30.4-.8-60.8-.7-91.2-.3-27.1.4-55.7.4-80.9-11.2-19.6-9-37.3-25.3-42.8-46.7-6.3-24.8,5.3-50,22-67.9,8.8-9.5,19-17.4,29.6-24.7,11.5-7.9,23.4-15.3,35.5-22.2,23.9-13.5,48.9-25.1,74.8-34.5,12.7-4.6,25.7-8.6,38.7-12.3,11-3.1,22.1-6.2,32.7-10.5,20.6-8.2,40.2-22.1,45.4-44.9,5-21.6-3.4-45-18.1-61.1-17-18.6-42.5-26.7-67.1-28-27.5-1.5-54.4,5.4-80.3,14.2-27.6,9.3-54.6,20-82.8,27.6-27.9,7.5-56.4,12.8-85.2,15.8-14.1,1.5-28.6,3.2-42.8,2-11.9-1-23.7-4.5-32.4-12.9-7.5-7.2-12-17.2-10.4-27.6.3-1.9,3.2-1.1,2.9.8-1.9,12.8,6.8,24.5,17.5,30.5,12.3,7,27.4,7,41.1,6.2,29.8-1.8,59.4-6.1,88.5-12.8,28.6-6.5,56.2-15.9,83.7-25.8,26.2-9.5,52.9-18.7,80.8-20.8,24.2-1.8,49.8,1.8,70.9,14.4,18.6,11.1,32.2,29.7,36.6,51,4.3,20.8-1.6,41.8-17.4,56.3-16.3,15-38.7,21.5-59.6,27.4-26.5,7.5-52.3,16.3-77.4,27.7-25.4,11.5-49.8,25.2-72.8,40.9-22.2,15.2-44.2,34.3-51.2,61.5-3.3,12.6-2.7,26,2.8,38,4.9,10.6,12.9,19.5,22.3,26.4,22.3,16.4,50.5,19.8,77.4,20.1,30.3.4,60.6-.6,90.9-.1,61.7,1,123.3,4.8,184.8,11.3,15.4,1.6,30.8,3.4,46.2,5.4,13.8,1.8,27.7,3.5,41.3,6.7,24.2,5.6,47.7,16.4,62.7,36.9,6.7,8.9,10.8,19.4,11.9,30.4,1.1,11.5-1.8,23.1-7,33.3-11.5,22.7-33.1,37.1-56.1,46.6-12.3,5.1-25,8.9-37.8,12.7-1.9.6-2.6-2.3-.8-2.9h0Z"/>
  <circle class="cls-5" cx="125.9" cy="69.5" r="24"/>
  <circle class="cls-5" cx="292.4" cy="115" r="24"/>
  <circle class="cls-5" cx="433.4" cy="24" r="24"/>
  <circle class="cls-5" cx="521.4" cy="126" r="24"/>
  <circle class="cls-5" cx="402.4" cy="244" r="24"/>
  <circle class="cls-5" cx="251.4" cy="301" r="24" transform="translate(-86 500.9) rotate(-80.8)"/>
  <circle class="cls-5" cx="411.4" cy="390" r="24"/>
  <circle class="cls-5" cx="583.4" cy="440" r="24"/>
  <circle class="cls-5" cx="784.4" cy="429" r="24"/>
  <path class="cls-4" d="M426.5,68c-71.9.5-130.8,58.9-131.8,130.8,0,.7,0,5.3,0,11.4,0,18.6,15.1,33.7,33.7,33.7h0c18.6,0,33.8-15.1,33.8-33.8h0c0-4.2,0-7,0-7.2,0-35.3,28.6-64,64-64s64,28.6,64,64c0,21.8-11.1,42.1-29.5,53.9h0s-48,30.9-62.7,73.3h0c-2.6,8.7-3.9,17.7-3.9,26.8,0,3.7.2,36.3.6,62.8.3,19,15.8,34.2,34.8,34.2h0c19.2,0,34.8-15.6,34.8-34.8,0,0,0-.1,0-.2-.1-24.2-.2-52.4-.2-54.5,0-26,25.1-52,45.8-68.9,23.8-19.5,40.9-46,47.7-76,1.5-6.2,2.4-12.5,2.5-18.8,0-73.3-59.4-132.8-132.7-132.8-.3,0-.6,0-1,0Z"/>
  <path class="cls-3" d="M843.5,595.3H1.2c-.7,0-1.2-.5-1.2-1.2,0-.7.5-1.2,1.2-1.2h842.3c.7,0,1.2.5,1.2,1.2,0,.7-.5,1.2-1.2,1.2Z"/>
  <circle class="cls-6" cx="628.4" cy="243" r="30"/>
  <polygon class="cls-2" points="573 582.1 560.8 582.1 554.9 534.8 573 534.8 573 582.1"/>
  <path class="cls-6" d="M552,578.6h23.6v14.9h-38.5c0-8.2,6.7-14.9,14.9-14.9Z"/>
  <polygon class="cls-2" points="668 582.1 655.8 582.1 649.9 534.8 668 534.8 668 582.1"/>
  <path class="cls-6" d="M647,578.6h23.6v14.9h-38.5c0-8.2,6.7-14.9,14.9-14.9Z"/>
  <circle class="cls-2" cx="623.9" cy="248.6" r="24.6"/>
  <path class="cls-6" d="M638.5,352.4l11-25.2c5.5-12.1,2.7-26.4-6.9-35.6-1-1-2-1.8-3.1-2.7-5.4-4.2-12.1-6.6-19-6.6-4.6,0-9.2,1-13.4,3-.4.2-.7.3-1.1.5-.7.3-1.4.7-2,1.1-8.7,5-14.6,13.9-15.7,23.9l-4.9,40.6c-1.2,3.2-44.7,118.4-29.5,206.3.3,1.9,1.9,3.4,3.8,3.7l15.4,2.1c2.3.3,4.5-1.2,5-3.5l25.9-123.4c.4-1.9,2.3-3.1,4.1-2.7,1.3.3,2.3,1.2,2.7,2.5l36.6,129.8c.5,1.9,2.3,3.3,4.3,3.3.3,0,.6,0,.9,0l18.8-3.6c2.3-.4,3.8-2.5,3.6-4.8-2.8-30.9-17.5-185.6-36.6-208.5Z"/>
  <path class="cls-2" d="M528.4,269c-.6,5.5,3.3,10.5,8.8,11.2.6,0,1.2,0,1.8,0l13.7,33,10.4-15.4-14.6-29c-.7-5.5-5.8-9.5-11.3-8.8-4.6.6-8.3,4.3-8.8,8.9h0Z"/>
  <path class="cls-2" d="M622.5,385.6c5.5-.7,9.5-5.7,8.8-11.2,0-.6-.2-1.2-.4-1.7l28.9-21-17.4-6.5-24.8,21c-5.2,2-7.9,7.8-5.9,13,1.7,4.4,6.1,7,10.7,6.5h0Z"/>
  <path class="cls-6" d="M575.4,335.2c-1.1,0-2.2-.1-3.3-.3-5.3-1-9.8-4.6-11.9-9.6l-19.2-23.5c-1.6-1.9-1.3-4.8.6-6.3.2-.1.3-.2.5-.3l13.7-8.5c2.1-1.3,4.9-.7,6.2,1.5,0,0,0,0,0,0l13.6,22.3,26-19.2c4.8-2.5,10.6-.7,13.1,4.1,2,3.8,1.3,8.5-1.8,11.5l-25.9,23.6c-3,3-7.2,4.7-11.4,4.7Z"/>
  <path class="cls-6" d="M645.6,370.5s0,0-.1,0c-1.3,0-2.5-.6-3.3-1.6l-12.2-14.2c-1.6-1.9-1.4-4.7.5-6.3.1-.1.3-.2.4-.3l22.8-15.2-20.6-24.8c-2.8-4.6-1.3-10.6,3.3-13.3,3.7-2.2,8.4-1.7,11.6,1.2l25.1,24.5c6.7,6.2,7.2,16.6,1.1,23.3-1.3,1.5-2.9,2.7-4.7,3.6l-20.5,21.8c-.9.9-2,1.4-3.3,1.4Z"/>
  <path class="cls-8" d="M617.6,318.2c-.2,0-.4,0-.6,0-1.7-.2-3.2-1.4-3.7-3.1l-9.1-28c-.5-1.5.2-3.1,1.6-3.7h.3c.3-.3.5-.4.8-.5,4.3-2,8.9-3,13.6-3,6.1,0,12.1,1.8,17.2,5.2,1.4.9,1.8,2.9.9,4.3l-17.2,26.9c-.8,1.3-2.2,2.1-3.8,2.1Z"/>
  <circle class="cls-6" cx="652.1" cy="219.8" r="9.8"/>
  <path class="cls-6" d="M618.4,209h0c-14.4,0-26,11.6-26,26v11h13.5l6.5-11,1.9,11h41.1l-11-11c0-14.4-11.6-26-26-26Z"/>
  <path class="cls-6" d="M657.1,213.1c2.2-7,9.2-11.4,16.5-10.4,6.3,1,11.2,6.1,14.1,11.7s4.3,11.9,6.3,17.9,4.8,12.1,9.8,16,12.7,5,17.6.9c-1.5,11-11.6,18.7-22.6,17.3-6.3-.8-11.8-4.6-14.9-10.1-2.6-4.6-3.3-10-4-15.3s-1.8-10.6-4.9-14.9-8.9-7.1-13.8-5.1l-4.1-8Z"/>
  <path class="cls-3" d="M337.9,228h0c-18.6,0-33.7-15.1-33.7-33.7,0-6.1,0-10.8,0-11.4.3-20.9,5.5-41.4,15.4-59.9-16.1,22.1-25,48.6-25.4,75.9,0,.7,0,5.3,0,11.4,0,18.6,15.1,33.7,33.7,33.7h0c15.1,0,28.4-10,32.5-24.6-6.2,5.5-14.2,8.6-22.5,8.6Z"/>
  <path class="cls-3" d="M428.8,139.1c35.3,1.7,62.6,31.7,60.9,67-.4,7.7-2.1,15.3-5.2,22.4,22.9-26.9,19.7-67.3-7.2-90.2-26.9-22.9-67.3-19.7-90.2,7.2-4.1,4.8-7.5,10.2-10,16,12.8-15.1,32-23.4,51.8-22.4Z"/>
  <path class="cls-3" d="M439.1,438h0c-19,0-34.5-15.2-34.8-34.2-.4-26.5-.6-59.1-.6-62.8,0-9.1,1.3-18.1,3.9-26.8h0c1.5-4.4,3.4-8.6,5.5-12.7-6.6,8.7-11.8,18.4-15.5,28.7h0c-2.6,8.7-3.9,17.7-3.9,26.8,0,3.7.2,36.3.6,62.8.3,19,15.8,34.2,34.8,34.2h0c15.5,0,29.1-10.2,33.4-25-6.4,5.8-14.7,9.1-23.4,9Z"/>
  <polygon class="cls-1" points="126.5 582.6 138.8 582.6 144.6 535.3 126.5 535.3 126.5 582.6"/>
  <path class="cls-6" d="M162.4,594h-38.5s0-14.9,0-14.9h23.6c8.2,0,14.9,6.7,14.9,14.9h0Z"/>
  <polygon class="cls-1" points="82.5 582.6 94.8 582.6 100.6 535.3 82.5 535.3 82.5 582.6"/>
  <path class="cls-6" d="M118.4,594h-38.5s0-14.9,0-14.9h23.6c8.2,0,14.9,6.7,14.9,14.9h0Z"/>
  <path class="cls-6" d="M93.3,568l-12-.6c-2.6-.1-4.6-2.3-4.4-4.9,0,0,0,0,0,0l14.3-158.5,65.9,17.8,6.4-1.7-19.9,140.3c-.3,2.2-2.2,3.8-4.4,3.9l-12.9.6c-2.6.1-4.8-1.8-4.9-4.4,0-.1,0-.3,0-.4l2.3-84.2c0-.9-.7-1.6-1.5-1.6-.8,0-1.4.5-1.6,1.2l-22.6,88.8c-.4,2.2-2.4,3.7-4.6,3.7,0,0-.2,0-.3,0Z"/>
  <circle class="cls-1" cx="128.7" cy="249.8" r="24.6"/>
  <path class="cls-7" d="M87.8,321.9l2.7,58.3,1,21.2c0,1.9,1.3,3.5,3.1,4.2l63.3,22.9c.5.2,1.1.3,1.6.3,2.6,0,4.7-2.1,4.7-4.6,0,0,0-.1,0-.2l-2.6-104.8c-.4-17.7-13.3-32.7-30.7-35.7-.6,0-1.2-.2-1.9-.3-10.6-1.3-21.3,2.1-29.2,9.4-8.1,7.5-12.5,18.2-12,29.2h0Z"/>
  <path class="cls-1" d="M188.2,416.9c-5.3-1.6-8.3-7.3-6.6-12.6.3-.9.7-1.8,1.3-2.6l-21.5-28.6,18.5-1.1,17.6,27.3c4.4,3.4,5.2,9.8,1.8,14.2-2.6,3.4-7,4.7-11.1,3.5Z"/>
  <path class="cls-7" d="M173.1,396.5c-1.1-.5-2.1-1.4-2.5-2.5l-32.4-77.1c-2.7-6.3.3-13.7,6.7-16.3,6.3-2.7,13.7.3,16.3,6.7,0,0,0,0,0,0l32.4,77.1c1,2.4-.1,5.1-2.5,6.1l-14.4,6c-1.1.5-2.4.5-3.6,0h0Z"/>
  <path class="cls-3" d="M120.8,393.8l31.1-59.5c1.2-2.4,4.2-3.3,6.6-2.1l45.1,23.6c2.4,1.2,3.3,4.2,2.1,6.6l-31.1,59.5c-1.2,2.4-4.2,3.3-6.6,2.1l-45.1-23.6c-2.4-1.2-3.3-4.2-2.1-6.6Z"/>
  <path class="cls-1" d="M141.7,366.6c-2-5.2-7.8-7.8-13-5.9-.9.3-1.8.8-2.6,1.4l-29.8-19.8v18.6c0,0,28.2,15.9,28.2,15.9,3.7,4.2,10.1,4.6,14.3,1,3.2-2.8,4.3-7.3,2.8-11.2h0Z"/>
  <path class="cls-7" d="M104,370.7l-24.3-19.3c-9-3-13.8-12.7-10.8-21.7.7-2,1.7-3.8,3-5.4l22.1-29c3.5-4.3,9.9-5,14.2-1.4,3.5,2.8,4.6,7.6,2.9,11.7l-17.5,28.6,25.7,12.2c2.3,1.1,3.3,3.9,2.2,6.2,0,.2-.2.3-.3.5l-10.4,16.4c-.7,1.1-1.9,1.9-3.2,2.1,0,0,0,0,0,0-1.3.2-2.6-.2-3.6-1Z"/>
  <path class="cls-6" d="M110.2,266.2c-.4-1.1.2-2.3,1.3-2.7.2,0,.3,0,.5-.1,1.3,0,2.6.7,3.5,1.7.9,1,1.9,1.9,3.1,2.6,1.2.6,2.8.5,3.5-.6.6-1.1.2-2.5-.2-3.8-1-3.2-1.5-6.5-1.6-9.8-.1-3.7.4-7.6,2.5-10.4,2.6-3.7,7.4-5.1,11.8-5s8.9,1.5,13.3,2.4c1.5.3,3.3.5,4.4-.7,1.1-1.3.7-3.3.2-5-1.2-4.4-2.5-9-5.3-12.6-3-3.7-7.3-6.1-12.1-6.8-4.5-.6-9.2,0-13.5,1.5-7,2.2-13.2,6.5-17.7,12.3-4.6,6.2-6.6,13.9-5.6,21.6,1,6.7,4.6,12.7,9.9,16.9l1.9-1.5Z"/>
  <path class="cls-3" d="M421.3,582.8c-23.3-10.1-33.9-37.2-23.8-60.5,1.7-3.9,4-7.6,6.7-11-20.5,15-25,43.8-10,64.3,15,20.5,43.8,25,64.3,10,3.1-2.3,5.9-4.9,8.3-7.8-13.2,9.6-30.5,11.6-45.5,5Z"/>
</svg>